<svg width="23" height="22" viewBox="0 0 23 22" fill="none" xmlns="http://www.w3.org/2000/svg">
<path d="M11.414 13.4063C12.0522 13.4063 12.6642 13.1528 13.1155 12.7015C13.5668 12.2502 13.8203 11.6382 13.8203 11C13.8203 10.9296 13.817 10.8597 13.811 10.7908L11.2048 13.397C11.2737 13.4031 11.3433 13.4063 11.414 13.4063ZM19.3787 3.55698L18.4609 2.64002C18.4287 2.60781 18.385 2.58972 18.3394 2.58972C18.2938 2.58972 18.2501 2.60781 18.2179 2.64002L15.8692 4.98934C14.5736 4.32719 13.1172 3.99612 11.5 3.99612C7.37065 3.99612 4.28979 6.14671 2.25736 10.4479C2.17567 10.6209 2.1333 10.8098 2.1333 11.0011C2.1333 11.1924 2.17567 11.3813 2.25736 11.5543C3.06947 13.2649 4.04737 14.636 5.19106 15.6675L2.91822 17.9395C2.88601 17.9717 2.86792 18.0154 2.86792 18.061C2.86792 18.1065 2.88601 18.1502 2.91822 18.1825L3.83539 19.0996C3.86762 19.1319 3.91132 19.1499 3.95689 19.1499C4.00245 19.1499 4.04615 19.1319 4.07838 19.0996L19.3787 3.80018C19.3947 3.78422 19.4074 3.76526 19.416 3.7444C19.4247 3.72353 19.4291 3.70117 19.4291 3.67858C19.4291 3.65599 19.4247 3.63363 19.416 3.61276C19.4074 3.5919 19.3947 3.57294 19.3787 3.55698ZM7.63276 11C7.6327 10.3469 7.80181 9.70492 8.12361 9.13659C8.44541 8.56826 8.90893 8.09297 9.46902 7.75702C10.0291 7.42107 10.6667 7.23593 11.3196 7.21961C11.9725 7.2033 12.6185 7.35638 13.1946 7.66393L12.1501 8.7085C11.7288 8.57361 11.2785 8.55737 10.8486 8.66155C10.4187 8.76573 10.0259 8.98631 9.71307 9.29909C9.4003 9.61187 9.17972 10.0048 9.07553 10.4346C8.97135 10.8645 8.9876 11.3148 9.12249 11.7361L8.07792 12.7807C7.78478 12.233 7.63185 11.6212 7.63276 11Z" fill="#67ACEB"/>
<path d="M20.7425 10.4457C19.9863 8.85299 19.0862 7.55425 18.0422 6.5495L14.9454 9.64648C15.2065 10.3289 15.2643 11.0722 15.112 11.7868C14.9597 12.5013 14.6037 13.1565 14.0871 13.6731C13.5705 14.1897 12.9154 14.5457 12.2008 14.698C11.4863 14.8503 10.7429 14.7924 10.0605 14.5314L7.43384 17.1581C8.65243 17.722 10.0078 18.0039 11.5 18.0039C15.6293 18.0039 18.7101 15.8533 20.7425 11.5521C20.8243 11.3792 20.8666 11.1902 20.8666 10.9989C20.8666 10.8076 20.8243 10.6187 20.7425 10.4457Z" fill="#67ACEB"/>
</svg>
