<svg width="634" height="688" viewBox="0 0 634 688" fill="none" xmlns="http://www.w3.org/2000/svg">
<rect x="77.4132" y="118.084" width="106.383" height="248.228" rx="9.8503" fill="#88C1F4"/>
<rect x="85.2934" y="131.874" width="21.6707" height="25.6108" rx="1.97006" fill="#2B8FEB"/>
<rect x="114.844" y="131.874" width="21.6707" height="25.6108" rx="1.97006" fill="#2B8FEB"/>
<rect x="114.844" y="167.335" width="21.6707" height="25.6108" rx="1.97006" fill="#2B8FEB"/>
<rect x="85.2934" y="167.335" width="21.6707" height="25.6108" rx="1.97006" fill="#2B8FEB"/>
<rect x="114.844" y="198.856" width="21.6707" height="25.6108" rx="1.97006" fill="#2B8FEB"/>
<rect x="144.395" y="131.874" width="21.6707" height="25.6108" rx="1.97006" fill="#2B8FEB"/>
<g filter="url(#filter0_i_545_1705)">
<path d="M379.975 293.217C373.671 305.825 387.199 329.334 394.75 339.513H414.451C418.72 331.304 427.651 310.553 429.227 293.217C431.197 271.546 394.75 279.426 394.75 256.771C394.75 234.115 394.75 236.085 368.155 216.384C341.559 196.684 338.604 233.13 339.589 247.905C340.574 262.681 387.855 277.456 379.975 293.217Z" fill="#FF434D"/>
</g>
<path d="M309.797 292.868C296.977 293.343 297.84 310.669 299.874 319.272C304.163 323.897 313.275 332.231 315.417 328.567C318.093 323.987 315.406 308.646 329.09 303.72C342.612 298.851 348.142 288.898 356.159 274.465L356.448 273.946C364.622 259.232 384.7 278.168 399.313 280.352C413.926 282.536 420.835 269.625 425.405 252.381C429.974 235.136 401.531 238.853 400.075 248.595C398.619 258.337 383.233 267.989 375.63 258.885C368.027 249.781 336.662 253.061 334.769 265.725C332.876 278.39 325.821 292.275 309.797 292.868Z" fill="#93E1DD"/>
<path d="M385.147 295.167C365.999 283.341 366.973 283.486 355.584 299.712C349.351 301.436 336.709 306.054 336.01 310.73C335.136 316.575 349.458 320.708 367.185 315.389C384.911 310.071 392.906 323.217 399.58 325.211C406.254 327.204 440.341 312.379 446.522 304.34C452.704 296.3 451.618 270.242 440.656 263.624C429.693 257.006 428.483 271.764 420.017 288.427C411.551 305.089 404.295 306.992 385.147 295.167Z" fill="#93E1DD"/>
<path d="M279.416 316.215C280.204 332.268 298.713 333.706 307.869 332.419C300.792 335.345 283.5 339.533 270.95 332.877C255.262 324.556 264.758 320.996 254.087 312.429C243.416 303.862 244.916 287.155 236.339 277.905C227.762 268.656 264.144 265.13 281.433 262.734C298.723 260.338 278.431 296.148 279.416 316.215Z" fill="#93E1DD"/>
<path d="M49.5725 168.028C76.8249 161.924 87.446 187.572 89.35 201.159C83.3201 204.504 48.5816 217.013 37.0068 214.421C25.4319 211.83 12.0473 197.852 14.2549 187.617C16.4626 177.381 15.5071 175.658 49.5725 168.028Z" fill="#1ED6CB"/>
<rect x="28.0516" y="161.942" width="7.88024" height="17.6173" rx="3.94012" transform="rotate(4.55959 28.0516 161.942)" fill="#4A9BE5"/>
<rect x="61.0423" y="161.048" width="7.88024" height="17.6173" rx="3.94012" transform="rotate(28.1272 61.0423 161.048)" fill="#4A9BE5"/>
<rect x="25.3449" y="201.741" width="7.88024" height="17.6173" rx="3.94012" transform="rotate(4.55959 25.3449 201.741)" fill="#4A9BE5"/>
<rect x="58.3355" y="200.847" width="7.88024" height="17.6173" rx="3.94012" transform="rotate(28.1272 58.3355 200.847)" fill="#4A9BE5"/>
<path d="M87.3209 200.657C78.1319 194.587 56.9711 183.143 45.8401 185.926C34.7091 188.71 21.8842 183.828 16.8631 181.039" stroke="#06122B" stroke-width="2.36407" stroke-linecap="round"/>
<path d="M139.47 303.269C134.217 275.689 116.42 216.587 87.2635 200.826" stroke="#06122B" stroke-width="2.36407" stroke-linecap="round"/>
<path d="M55.8274 216.584C73.2964 209.499 83.2115 225.399 85.9854 234.235C82.3412 237.13 60.5978 249.31 52.6036 248.868C44.6094 248.425 34.1479 240.602 34.4832 233.542C34.8185 226.482 33.9913 225.441 55.8274 216.584Z" fill="#93E1DD"/>
<rect x="40.8234" y="214.918" width="5.31916" height="11.8917" rx="2.65958" transform="rotate(-4.89281 40.8234 214.918)" fill="#4A9BE5"/>
<rect x="62.6908" y="210.665" width="5.31916" height="11.8917" rx="2.65958" transform="rotate(18.6748 62.6908 210.665)" fill="#4A9BE5"/>
<rect x="43.4333" y="241.717" width="5.31916" height="11.8917" rx="2.65958" transform="rotate(-4.89281 43.4333 241.717)" fill="#4A9BE5"/>
<rect x="65.3002" y="237.465" width="5.31916" height="11.8917" rx="2.65958" transform="rotate(18.6748 65.3002 237.465)" fill="#4A9BE5"/>
<path d="M84.5788 234.125C77.7875 231.102 62.4293 225.828 55.3265 228.915C48.2237 232.003 39.1432 230.174 35.4908 228.874" stroke="#06122B" stroke-width="1.59575" stroke-linecap="round"/>
<path d="M130.677 296.667C124.121 278.886 105.72 241.506 84.5594 234.245" stroke="#06122B" stroke-width="1.59575" stroke-linecap="round"/>
<path d="M538.05 185.8C511.716 195.098 516.335 222.471 521.936 234.996C528.822 234.628 564.901 226.782 573.333 218.44C581.765 210.098 585.685 191.146 578.379 183.645C571.073 176.144 570.968 174.177 538.05 185.8Z" fill="#FF7C45"/>
<rect width="7.88024" height="17.6173" rx="3.94012" transform="matrix(-0.802485 0.596673 0.596673 0.802485 553.055 169.215)" fill="#4A9BE5"/>
<rect width="7.88024" height="17.6173" rx="3.94012" transform="matrix(-0.49698 0.867762 0.867762 0.49698 524.625 185.975)" fill="#4A9BE5"/>
<rect width="7.88024" height="17.6173" rx="3.94012" transform="matrix(-0.802485 0.596673 0.596673 0.802485 576.482 201.503)" fill="#4A9BE5"/>
<rect width="7.88024" height="17.6173" rx="3.94012" transform="matrix(-0.49698 0.867762 0.867762 0.49698 548.051 218.263)" fill="#4A9BE5"/>
<path d="M523.389 233.493C527.953 223.47 539.807 202.536 550.717 198.984C561.627 195.433 569.903 184.486 572.677 179.457" stroke="#06122B" stroke-width="2.36407" stroke-linecap="round"/>
<path d="M533.685 348.135C523.492 321.974 507.189 262.443 523.528 233.606" stroke="#06122B" stroke-width="2.36407" stroke-linecap="round"/>
<path d="M558.533 230.266C539.968 233.538 540.009 252.276 542.35 261.237C546.976 261.755 571.868 260.53 578.407 255.911C584.946 251.291 589.657 239.107 585.624 233.303C581.591 227.498 581.739 226.177 558.533 230.266Z" fill="#FFB89A"/>
<rect width="5.31916" height="11.8917" rx="2.65958" transform="matrix(-0.889579 0.456781 0.456781 0.889579 570.362 220.887)" fill="#4A9BE5"/>
<rect width="5.31916" height="11.8917" rx="2.65958" transform="matrix(-0.632743 0.774362 0.774362 0.632743 549.574 228.895)" fill="#4A9BE5"/>
<rect width="5.31916" height="11.8917" rx="2.65958" transform="matrix(-0.889579 0.456781 0.456781 0.889579 582.381 244.982)" fill="#4A9BE5"/>
<rect width="5.31916" height="11.8917" rx="2.65958" transform="matrix(-0.632743 0.774362 0.774362 0.632743 561.593 252.99)" fill="#4A9BE5"/>
<path d="M543.484 260.397C547.634 254.229 557.847 241.605 565.505 240.45C573.163 239.294 579.887 232.923 582.291 229.882" stroke="#06122B" stroke-width="1.59575" stroke-linecap="round"/>
<path d="M537.631 337.871C533.744 319.322 529.488 277.877 543.564 260.488" stroke="#06122B" stroke-width="1.59575" stroke-linecap="round"/>
<path d="M479.265 100.409C477.242 89.862 474.005 82.0077 460.856 91.4326C460.856 91.4326 460.741 80.9851 456.088 76.8597C451.435 72.7339 422.04 54.3539 420.916 84.5624C420.916 84.5624 420.376 108.831 420.376 114.89C420.376 120.949 428.894 141.475 435.975 141.475C437.655 141.445 439.324 141.177 440.933 140.677C439.907 149.058 437.346 157.163 433.384 164.56L476.877 155.82C476.877 155.82 469.36 143.762 467.793 120.081C474.423 114.008 480.746 108.13 479.265 100.409Z" fill="#FFB7B6"/>
<path d="M494.925 29.6071C474.443 29.6071 474.325 49.4108 474.325 49.4108L477.571 55.313C453.506 37.3502 439.727 53.6745 439.727 53.6745C420.376 49.3682 410.551 62.3559 409.08 77.8399C407.609 93.3239 420.604 99.6033 420.604 99.6033L420.826 88.7156C427.289 85.0093 426.031 80.7441 426.815 78.5834C429.103 89.5232 447.587 94.4525 451.332 97.9384C455.311 101.641 455.746 109.888 458.034 109.888C460.322 109.888 459.062 97.706 466.207 93.5625C475.331 88.2707 477.856 99.1819 476.177 104.839C474.325 111.081 467.279 118.553 467.279 118.553L468.159 128.82C482.392 119.663 492.984 98.8618 491.362 80.3886L491.363 80.3902C507.724 79.9299 513.935 73.927 518.82 63.7727C523.984 53.0385 515.406 29.6071 494.925 29.6071Z" fill="#161B36"/>
<path d="M491.531 67.251C485.963 55.1331 476.712 49.6628 474.325 49.4108C471.299 49.0913 470.225 50.672 470.225 50.672L470.226 50.6735C473.063 52.1523 475.765 53.8889 478.302 55.8625C487.929 63.2635 491.739 73.9709 491.52 85.083C492.294 84.6678 493.031 84.1824 493.721 83.6326C494.745 82.7803 497.099 79.3688 491.531 67.251Z" fill="#F76161"/>
<g style="mix-blend-mode:overlay" opacity="0.6">
<path d="M440.987 140.021C440.987 140.021 453.833 133.218 457.91 128.82C458.14 136.118 455.698 143.238 451.07 148.77C447.427 152.996 441.723 154.223 437.721 154.502C439.343 149.819 440.439 144.961 440.987 140.021Z" fill="#030F1C"/>
</g>
<path d="M437.307 88.1265C437.889 87.4518 438.69 86.927 441.093 87.077C443.495 87.2269 447.136 89.5509 446.335 90.1506C445.534 90.7503 443.131 88.7262 441.238 89.4009C439.345 90.0756 438.259 90.6306 437.622 90.2632C436.822 89.8008 437.027 88.4508 437.307 88.1265Z" fill="#161B36"/>
<path d="M426.895 87.4382C426.132 86.9933 425.21 86.7629 422.983 87.7035C420.756 88.6442 418.039 92.054 418.985 92.3553C419.931 92.6567 421.571 89.9422 423.574 89.9515C425.577 89.9607 426.779 90.1246 427.266 89.5653C427.879 88.8614 427.262 87.6521 426.895 87.4382Z" fill="#161B36"/>
<g style="mix-blend-mode:overlay" opacity="0.6">
<path d="M431.042 117.814C430.073 117.83 429.117 117.578 428.274 117.084C427.67 116.752 427.24 116.161 427.102 115.47C426.901 114.169 428.034 111.621 429.213 109.122C429.403 108.717 429.559 108.387 429.65 108.173C431.171 104.574 430.48 97.7164 430.473 97.6473C430.457 97.4902 430.523 97.3361 430.647 97.243C430.771 97.1499 430.933 97.132 431.074 97.196C431.214 97.2599 431.31 97.3961 431.327 97.5531C431.357 97.8433 432.05 104.711 430.437 108.526C430.343 108.748 430.183 109.089 429.985 109.508C429.268 111.03 427.775 114.196 427.95 115.331C428.059 115.762 428.34 116.125 428.724 116.33C429.864 116.963 431.203 117.103 432.443 116.717C432.669 116.643 432.911 116.771 432.983 117.003C433.056 117.236 432.932 117.485 432.706 117.559C432.167 117.732 431.606 117.818 431.042 117.814Z" fill="#030F1C"/>
</g>
<path d="M429.388 126.511C429.314 126.245 429.346 125.959 429.477 125.717C429.608 125.475 429.828 125.297 430.087 125.223C431.375 124.839 433.75 124.117 435.56 123.482C437.446 122.712 439.28 121.814 441.05 120.793C441.359 120.621 441.732 120.624 442.037 120.802C442.343 120.98 442.538 121.308 442.553 121.669C442.676 124.444 442.352 129.865 438.113 130.97C432.958 132.313 430.26 129.442 429.388 126.511Z" fill="#161B36"/>
<path d="M431.629 129.971C431.629 129.971 436.065 123.591 442.401 125.049C442.401 125.049 442.411 130.031 438.326 131.154C433.928 132.363 431.629 129.971 431.629 129.971Z" fill="#E55151"/>
<path d="M443.199 96.759C442.376 96.5702 441.536 96.4659 440.692 96.4478C439.787 96.4478 439.054 97.6896 439.054 99.2216C439.054 100.754 439.787 101.995 440.692 101.995C441.597 101.995 442.33 100.753 442.33 99.2216C442.342 98.5492 442.183 97.8853 441.868 97.2961C442.526 97.3182 443.179 97.4204 443.813 97.6004C444.427 97.7839 444.47 97.0643 443.199 96.759Z" fill="#161B36"/>
<path d="M426.828 97.9115C426.067 97.7368 425.293 97.6343 424.514 97.6054C424.503 97.6051 424.494 97.6003 424.484 97.6003C424.477 97.6003 424.47 97.6037 424.463 97.6039C424.379 97.6013 424.321 97.6003 424.321 97.6003L424.314 97.6294C423.49 97.7754 422.846 98.9409 422.846 100.374C422.846 101.906 423.579 103.148 424.484 103.148C425.388 103.148 426.122 101.906 426.122 100.374C426.134 99.7045 425.975 99.0434 425.663 98.4559C426.265 98.4884 426.862 98.588 427.442 98.753C428.057 98.9365 428.099 98.2168 426.828 97.9115Z" fill="#161B36"/>
<path d="M462.463 75.6783C462.283 75.6783 462.121 75.5618 462.06 75.3869C457.417 62.1937 443.963 56.2917 443.827 56.2334C443.685 56.1731 443.585 56.039 443.565 55.8819C443.545 55.7248 443.608 55.5688 443.731 55.4728C443.853 55.3768 444.016 55.3556 444.158 55.4173C444.297 55.4769 458.098 61.5308 462.867 75.0854C462.948 75.3151 462.833 75.5687 462.61 75.652C462.563 75.6693 462.513 75.6783 462.463 75.6783Z" fill="white"/>
<path d="M509.211 68.9628C509.04 68.9629 508.885 68.8583 508.817 68.6966C508.748 68.5349 508.78 68.3469 508.897 68.2183C517.931 58.2812 512.029 45.7561 511.968 45.6309C511.863 45.4125 511.949 45.1473 512.161 45.0384C512.373 44.9295 512.631 45.018 512.737 45.2362C512.8 45.3671 518.961 58.4418 509.524 68.8228C509.443 68.9122 509.33 68.9628 509.211 68.9628Z" fill="white"/>
<path d="M471.922 97.9846C469.854 97.2615 467.855 99.1963 466.341 101.385L466.333 101.396C465.292 102.947 464.4 104.599 463.671 106.328C463.579 106.553 463.682 106.813 463.9 106.907C464.119 107.002 464.371 106.896 464.463 106.671C465.143 105.044 465.976 103.489 466.949 102.028C467.834 101.867 468.745 102.039 469.518 102.511C470.29 103.1 470.784 103.999 470.875 104.984C470.91 105.198 471.088 105.354 471.298 105.354C471.322 105.355 471.346 105.352 471.369 105.348C471.481 105.329 471.582 105.265 471.648 105.17C471.714 105.074 471.741 104.956 471.722 104.84C471.597 103.611 470.968 102.496 469.994 101.775C469.289 101.315 468.467 101.078 467.632 101.095C468.884 99.4969 470.313 98.3561 471.646 98.8224C471.87 98.8996 472.113 98.7756 472.189 98.545C472.265 98.3143 472.146 98.0638 471.922 97.9846H471.922Z" fill="#0B122D"/>
<path d="M440.295 140.792C440.092 140.792 439.917 140.646 439.874 140.441C439.832 140.237 439.935 140.03 440.12 139.945C440.265 139.879 454.656 133.25 460.73 125.237C460.824 125.112 460.976 125.049 461.128 125.071C461.28 125.093 461.409 125.197 461.466 125.343C461.524 125.489 461.501 125.656 461.407 125.781C455.2 133.97 441.067 140.481 440.468 140.754C440.414 140.779 440.355 140.792 440.295 140.792Z" fill="#0B122D"/>
<path fill-rule="evenodd" clip-rule="evenodd" d="M492.649 683.004C490.804 682.252 489.62 680.384 489.694 678.342C489.668 678.551 489.642 678.761 489.618 678.972C489.92 675.824 490.428 671.652 491.271 666.154C492.036 661.168 493.77 659.74 493.77 659.74C493.77 659.74 508.718 656.655 510.622 658.049C511.569 658.742 512.605 661.057 513.89 663.927C514.339 664.931 514.818 666.003 515.335 667.097C515.727 667.927 516.137 668.775 516.553 669.635C518.68 674.034 520.952 678.734 521.699 682.825C521.433 681.581 521.096 680.354 520.691 679.151C519.787 680.654 518.519 681.89 517.011 682.736C511.717 685.743 497.055 685.988 492.649 683.004ZM360.64 676.251C363.471 674.416 383.498 668.501 383.498 668.501L419.748 659.169C419.748 659.169 423.757 666.533 423.746 673.738C423.775 676.412 423.154 679.051 421.938 681.414C420.936 683.302 419.022 684.486 416.932 684.51C406.831 684.675 368.168 685.171 363.605 684.381C358.247 683.452 357.809 678.086 360.64 676.251Z" fill="#7686D6"/>
<path fill-rule="evenodd" clip-rule="evenodd" d="M509.18 606.932L510.337 656.186C510.337 656.186 513.907 668.783 513.764 669.617C512.882 674.766 494.046 676.604 493.104 669.813C492.961 668.783 493.628 657.093 493.628 657.093L488.088 608.674L509.18 606.932ZM399.5 659.29C404.594 654.809 402.322 629.33 402.322 629.33L419.773 632.173C419.773 632.173 419.454 656.715 419.748 659.168C420.042 661.622 408.568 668.349 399.038 669.866C389.507 671.384 381.617 670.759 381.47 669.839C381.413 669.484 383.151 668.653 385.667 667.449C389.673 665.533 395.654 662.673 399.5 659.29Z" fill="#FFB7B6"/>
<g style="mix-blend-mode:overlay" opacity="0.6">
<path d="M383.418 684.815C385.075 680.732 388.906 678.032 393.203 677.92C401.829 677.579 403.538 684.67 403.538 684.67L383.418 684.815Z" fill="#030F1C"/>
</g>
<path fill-rule="evenodd" clip-rule="evenodd" d="M517.011 682.735C518.519 681.89 519.787 680.654 520.691 679.15C520.691 679.15 522.25 683.65 521.952 685.775V687.518H489.105V685.775C489.105 685.775 489.248 681.867 489.694 678.342C489.62 680.384 490.804 682.252 492.649 683.004C497.055 685.988 511.717 685.743 517.011 682.735ZM416.932 684.51C419.022 684.486 420.936 683.302 421.938 681.414C422.196 680.921 422.427 680.414 422.628 679.894V679.895C422.383 681.318 422.028 682.718 421.568 684.083C420.858 686.146 418.962 687.525 416.836 687.524L362.949 687.445C361.036 687.442 359.434 685.95 359.241 683.99L358.915 680.694L359.059 680.679C359.492 682.357 360.939 683.919 363.605 684.381C368.168 685.171 406.831 684.675 416.932 684.51Z" fill="#2D2B72"/>
<path d="M408.891 301.603C399.085 378.809 393.763 441.881 393.487 452.673C393.212 463.405 399.391 645.113 399.391 645.113C399.391 645.113 415.813 646.802 423.007 643.08C423.007 643.08 428.509 579.346 431.048 557.481C433.587 535.616 440.065 488.521 440.065 467.457C446.499 438.752 451.859 404.24 451.859 404.24C451.859 404.24 455.722 428.953 461.027 462.539C472.239 533.521 489.886 644.134 491.094 644.825C492.417 645.581 502.274 647.272 512.907 643.344C512.907 643.344 511.303 610.515 511.726 591.907C512.149 573.298 511.115 497.85 504.766 465.285C504.766 465.285 507.765 436.007 511.71 414.244C514.212 400.437 517.667 378.024 514.62 357.287C510.749 330.938 503.584 324.543 499.157 299.502C472.395 287.584 436.787 286.8 408.891 301.603Z" fill="#201F20"/>
<g style="mix-blend-mode:overlay" opacity="0.6">
<path d="M451.859 404.24L442.072 360.006C442.072 360.006 431.682 384.256 432.806 403.073C433.931 421.891 440.685 420.814 442.449 456.351L451.859 404.24Z" fill="#030F1C"/>
</g>
<g style="mix-blend-mode:overlay" opacity="0.6">
<path d="M401.315 366.028C401.315 366.028 409.939 368.863 409.177 378.809C408.415 388.755 403.629 440.909 403.547 459.34C403.464 477.77 406.295 528.748 403.547 538.551C400.799 548.354 396.214 549.152 396.214 549.152C396.214 549.152 393.792 473.849 393.487 452.673C394.529 430.874 401.315 366.028 401.315 366.028Z" fill="white"/>
</g>
<g style="mix-blend-mode:overlay" opacity="0.6">
<path d="M458.15 444.3C458.15 444.3 467.064 446.458 471.063 465.055C475.061 483.652 483.978 549.531 485.803 565.412C487.629 581.294 481.585 590.89 481.585 590.89L458.15 444.3Z" fill="white"/>
</g>
<path d="M507.906 329.988C501.161 329.988 495.814 327.85 492.015 323.633C484.87 315.702 485.681 303.365 485.719 302.844C485.726 302.727 485.779 302.617 485.866 302.541C485.952 302.464 486.065 302.426 486.179 302.436C486.415 302.454 486.593 302.666 486.575 302.91C486.566 303.034 485.758 315.392 492.648 323.035C496.278 327.062 501.412 329.104 507.906 329.104C508.144 329.104 508.336 329.302 508.336 329.546C508.336 329.79 508.144 329.988 507.906 329.988Z" fill="#0B122D"/>
<path d="M404.791 331.933C404.593 331.934 404.421 331.795 404.374 331.597C404.327 331.399 404.416 331.194 404.592 331.1C404.745 331.017 419.918 322.665 419.116 307.672C419.105 307.43 419.286 307.224 419.521 307.21C419.757 307.197 419.958 307.381 419.973 307.623C420.806 323.191 405.147 331.798 404.989 331.883C404.928 331.916 404.86 331.934 404.791 331.933Z" fill="#0B122D"/>
<g style="mix-blend-mode:overlay" opacity="0.6">
<path d="M408.891 301.603L407.208 315.067C407.208 315.067 441.651 335.321 505.58 324.883C505.58 324.883 500.037 307.816 499.157 299.502L408.891 301.603Z" fill="#030F1C"/>
</g>
<path fill-rule="evenodd" clip-rule="evenodd" d="M525.278 199.429C528.681 208.913 532.947 220.805 538.778 235.809C544.708 251.068 543.257 263.569 525.353 267.278C521.411 268.093 508.975 270.461 495.431 272.861C496.475 281.957 498.04 290.982 500.119 299.888C500.544 301.731 499.828 303.655 498.316 304.734C483.815 314.784 424.391 319.059 409.584 307.073C408.045 305.797 407.286 303.771 407.595 301.761C411.628 274.153 409.817 255.949 406.801 248.094C406.35 246.919 405.903 245.813 405.472 244.746C403.622 240.171 402.062 236.31 401.732 230.838C393.738 241.867 381.377 256.816 370.735 256.666C362.443 256.549 352.836 250.195 334.555 220.001C334.128 219.296 332.992 217.439 331.462 214.937C326.121 206.209 315.978 189.634 314.419 186.767C321.728 187.509 328.593 183.047 331.086 175.933L349.237 200.055L369.642 223.743C370.108 224.288 370.814 224.545 371.509 224.424C372.204 224.302 372.788 223.819 373.054 223.147C376.451 214.61 380.323 206.281 384.652 198.203C388.364 191.155 392.699 184.474 397.601 178.244C403.418 171.135 410.995 165.781 419.529 162.749C419.609 162.716 437.403 156.494 437.403 156.494C437.403 156.494 430.181 182.226 446.947 181.153C470.053 179.674 476.215 153.565 476.215 153.565C476.215 153.565 489.295 157.089 495.857 159.287C512.322 163.315 514.308 168.85 525.278 199.429ZM494.687 250.123C499.897 248.201 506.942 245.506 510.54 244.124C511.142 243.894 511.624 243.416 511.872 242.806C512.12 242.196 512.111 241.507 511.848 240.904C509.629 235.811 504.146 223.259 499.277 212.331C498.799 219.588 497.905 226.809 496.6 233.957C495.573 239.289 494.933 244.693 494.687 250.123Z" fill="#3268AE"/>
<path fill-rule="evenodd" clip-rule="evenodd" d="M476.215 153.565L491.003 157.744C491.003 157.744 493.851 174.313 469.002 177.544C471.148 187.429 455.359 202.241 441.665 180.81C426.532 197.665 422.24 177.66 429.017 172.194C421.562 165.681 423.313 161.436 423.313 161.436L437.403 156.493C432.01 176.788 441.665 180.81 441.665 180.81C441.665 180.81 441.665 180.81 441.665 180.81C441.708 180.818 466.723 185.642 476.215 153.565Z" fill="#FCC92C"/>
<g style="mix-blend-mode:overlay" opacity="0.6">
<path d="M370.129 234.845C363.742 227.827 342.449 203.624 349.238 200.051L369.639 223.741C370.106 224.286 370.813 224.544 371.509 224.423C372.204 224.302 372.79 223.819 373.057 223.147C376.452 214.608 380.324 206.278 384.653 198.2C387.457 204.034 382.418 220.357 373.329 234.558C372.986 235.098 372.421 235.445 371.797 235.501C371.173 235.557 370.558 235.315 370.129 234.845Z" fill="white"/>
</g>
<path d="M367.992 236.041C367.856 236.041 367.732 235.957 367.679 235.827C367.626 235.697 367.653 235.547 367.748 235.446C371.754 231.192 371.151 225.341 371.144 225.283C371.122 225.091 371.256 224.916 371.443 224.894C371.63 224.872 371.799 225.009 371.82 225.202C372.133 229.137 370.834 233.028 368.237 235.934C368.173 236.003 368.085 236.041 367.992 236.041Z" fill="#0B122D"/>
<g style="mix-blend-mode:overlay" opacity="0.6">
<path d="M401.82 225.006C402.214 220.254 404.533 211.004 406.996 198.725C406.155 199.511 405.355 200.341 404.6 201.214C393.585 213.923 401.89 225.91 397 233.139C387.268 247.526 385.157 239.424 376.78 247.352C374.322 249.679 373.305 252.597 373.163 256.421C380.167 255.79 393.716 243.031 401.981 233.409C401.611 230.624 401.557 227.804 401.82 225.006Z" fill="#030F1C"/>
</g>
<g style="mix-blend-mode:overlay" opacity="0.6">
<path d="M404.383 242.015C404.383 242.015 411.67 248.934 419.17 249.077C424.292 249.175 425.382 252.034 420.1 253.203C417.648 253.746 413.094 253.309 408.249 253.174C407.272 249.348 405.979 245.614 404.383 242.015V242.015Z" fill="#030F1C"/>
</g>
<g style="mix-blend-mode:overlay" opacity="0.6">
<path d="M495.421 272.862C492.749 273.336 490.037 273.81 487.336 274.274C487.919 278.142 487.993 281.639 487.507 283.703C484.366 297.062 470.656 306.213 462.944 308.107C458.159 309.329 453.632 311.445 449.589 314.349C449.589 314.349 483.133 314.17 498.316 304.734C498.316 304.734 500.914 303.614 500.119 299.888C497.818 291.031 496.247 281.991 495.421 272.862V272.862Z" fill="#030F1C"/>
</g>
<g style="mix-blend-mode:overlay" opacity="0.6">
<path d="M475.578 254.515C476.567 254.501 477.543 254.751 478.41 255.242C483.113 253.94 487.479 252.672 490.126 251.764C491.289 251.365 492.919 250.775 494.771 250.092C494.812 248.759 494.863 247.412 494.934 246.035C495.406 236.885 498.08 230.564 499.378 212.556C496.233 205.496 493.339 199.101 491.721 195.775C492.138 204.71 492.642 224.153 489.792 233.957C487.222 242.8 477.001 247.312 470.084 248.535C459.516 250.403 460.907 254.874 475.578 254.515Z" fill="#030F1C"/>
</g>
<path d="M440.747 216.599H440.734C440.497 216.592 440.31 216.388 440.317 216.144L441.307 181.387C441.328 181.149 441.517 180.965 441.749 180.958C441.986 180.965 442.173 181.169 442.166 181.413L441.176 216.17C441.169 216.409 440.979 216.599 440.747 216.599Z" fill="#0B122D"/>
<path d="M464.592 278.309C464.408 278.315 464.251 278.172 464.234 277.983C464.217 277.794 464.346 277.624 464.528 277.595L487.31 273.944C487.434 273.924 487.558 273.973 487.637 274.073C487.715 274.173 487.736 274.309 487.691 274.429C487.645 274.549 487.541 274.635 487.418 274.654L464.635 278.305C464.621 278.307 464.607 278.309 464.592 278.309Z" fill="#0B122D"/>
<g style="mix-blend-mode:overlay" opacity="0.6">
<path d="M518.213 247.573C510.115 250.908 486.651 261.543 482.795 254.043C495.006 250.514 510.54 244.124 510.54 244.124C511.13 243.927 511.609 243.48 511.858 242.895C512.107 242.311 512.1 241.644 511.84 241.065C510.034 237.256 507.002 229.412 501.575 217.648C503.411 216.893 507.23 217.642 508.43 219.927C509.821 222.587 516.818 236.777 519.784 242.5C520.45 243.785 520.355 246.691 518.213 247.573Z" fill="white"/>
</g>
<path d="M519.56 249.486C519.39 249.486 519.244 249.359 519.216 249.186C519.178 248.95 518.208 243.407 511.829 243.218C511.637 243.212 511.485 243.047 511.49 242.849C511.496 242.65 511.656 242.494 511.849 242.499C515.718 242.413 519.1 245.172 519.905 249.07C519.936 249.265 519.807 249.45 519.617 249.482C519.598 249.485 519.579 249.486 519.56 249.486Z" fill="#0B122D"/>
<path d="M500.739 211.973C500.668 211.973 500.599 211.951 500.541 211.909C490.56 204.774 490.529 189.242 490.529 189.086C490.531 188.888 490.686 188.729 490.878 188.729H490.88C491.073 188.73 491.229 188.892 491.227 189.09C491.227 189.243 491.263 204.401 500.939 211.319C501.064 211.408 501.118 211.572 501.073 211.721C501.027 211.871 500.892 211.973 500.739 211.973V211.973Z" fill="#0B122D"/>
<g style="mix-blend-mode:overlay" opacity="0.6">
<path d="M397.895 177.851C397.895 177.851 413.288 168.066 430.937 164.449L430.523 158.907C423.228 161.902 409.342 163.974 397.895 177.851Z" fill="white"/>
</g>
<path d="M460.013 287.798L433.201 240.948L425.869 228.133C425.286 227.113 424.223 226.487 423.074 226.488H379.624C378.339 226.641 377.196 227.404 376.538 228.552C376.395 228.76 376.264 228.976 376.146 229.2C375.963 229.537 375.814 229.892 375.701 230.26C375.701 230.267 375.693 230.267 375.693 230.275C375.343 231.144 375.371 232.125 375.77 232.971L375.724 232.876C375.744 232.933 375.767 232.989 375.793 233.042L375.816 233.074C375.824 233.082 375.824 233.09 375.832 233.098C375.851 233.147 375.875 233.194 375.901 233.24L399.787 274.983L404.117 282.541L410.045 292.905C410.627 293.925 411.691 294.551 412.839 294.55H456.289C456.449 294.549 456.608 294.535 456.765 294.51C459.276 294.502 461.287 290.028 460.013 287.798Z" fill="#36C9D8"/>
<g style="mix-blend-mode:overlay" opacity="0.6">
<path d="M375.55 232.381C375.522 232.266 375.5 232.15 375.485 232.032C375.499 232.15 375.521 232.266 375.55 232.381Z" fill="#030F1C"/>
<path d="M375.722 232.875C375.747 232.929 375.765 232.987 375.794 233.039L375.832 233.101C375.793 233.026 375.754 232.951 375.722 232.875Z" fill="#030F1C"/>
<path d="M375.685 232.792C375.632 232.659 375.587 232.523 375.551 232.384C375.584 232.524 375.629 232.66 375.685 232.792Z" fill="#030F1C"/>
<path d="M456.765 294.51C457.832 294.348 458.751 293.65 459.216 292.648C459.681 291.645 459.632 290.471 459.084 289.514L431.75 241.755L424.94 229.848C424.358 228.829 423.294 228.203 422.145 228.204H378.695C377.384 228.197 376.199 229.01 375.701 230.26C375.814 229.892 375.963 229.537 376.146 229.2C376.262 228.975 376.393 228.758 376.538 228.552C377.196 227.404 378.339 226.641 379.625 226.488H423.074C424.223 226.487 425.287 227.113 425.869 228.133L433.201 240.948L460.013 287.798C461.287 290.028 459.276 294.502 456.765 294.51Z" fill="#030F1C"/>
</g>
<g style="mix-blend-mode:overlay" opacity="0.6">
<path d="M378.299 231.277H381.306C381.502 231.277 381.684 231.384 381.783 231.559L382.518 232.853C382.617 233.029 382.618 233.246 382.52 233.423C382.421 233.6 382.239 233.709 382.041 233.709H379.034C378.838 233.709 378.656 233.601 378.557 233.427L377.822 232.132C377.723 231.956 377.722 231.739 377.82 231.562C377.919 231.386 378.101 231.277 378.299 231.277Z" fill="#030F1C"/>
</g>
<g style="mix-blend-mode:overlay" opacity="0.6">
<path d="M407.94 252.559H411.884C413.045 252.607 414.131 253.164 414.867 254.091C416.561 256.152 415.776 258.744 413.457 258.744H409.513C408.352 258.696 407.266 258.138 406.53 257.212C404.836 255.15 405.621 252.559 407.94 252.559Z" fill="#030F1C"/>
</g>
<path fill-rule="evenodd" clip-rule="evenodd" d="M326.024 159.135C326.024 159.135 325.67 151.816 323.5 149.78C322.128 148.577 320.268 148.148 318.528 148.634C318.528 148.634 318.355 148.226 318.099 147.616C317.878 147.088 317.586 146.414 317.288 145.726C316.754 144.493 316.2 143.214 315.998 142.641C313.143 134.528 308.165 124.095 305.686 124.954C303.733 125.631 305.336 130.252 309.234 141.489L309.234 141.49C309.739 142.945 310.283 144.511 310.862 146.194C310.534 145.591 308.785 143.366 305.383 144.733C302.989 145.689 304.66 149.898 304.66 149.898C304.66 149.898 301.273 148.368 299.63 150.137C297.838 152.077 299.417 155.365 299.538 155.586C299.349 155.492 296.187 153.95 294.919 156.94C294.418 158.131 295.686 161.599 298.128 165.686C298.432 166.191 298.752 166.705 299.088 167.226C299.165 167.342 299.238 167.455 299.316 167.577L299.322 167.58C299.94 168.524 300.617 169.487 301.339 170.45L301.345 170.45C301.555 170.729 301.758 171.001 301.956 171.265L301.956 171.266C305.586 176.115 307.333 178.448 312.953 180.52C312.953 180.52 314.317 183.108 316.297 186.807C322.335 186.739 327.809 183.138 330.406 177.524C329.323 175.699 328.355 173.804 327.507 171.852C327.507 171.852 327.025 167.305 326.024 159.135ZM456.932 262.105L456.942 262.165C455.93 262.332 454.9 262.35 453.883 262.217C453.495 262.085 453 261.966 452.447 261.832C451.04 261.492 449.253 261.061 447.879 260.106C446.836 259.381 444.522 256.371 442.498 253.737C440.804 251.533 439.312 249.593 438.936 249.474C438.111 249.214 435.697 253.081 437.463 255.838C438.018 256.705 438.61 257.53 439.145 258.276L439.146 258.277C440.313 259.905 441.212 261.159 440.879 261.658C440.524 262.191 438.742 262.431 437.064 262.656C436.775 262.695 436.489 262.734 436.214 262.773C432.439 263.201 423.753 264.238 422.908 264.819C421.826 265.564 421.311 267.574 423.363 268.043C424.416 268.284 422.947 268.978 421.705 269.565C421.192 269.807 420.717 270.032 420.476 270.198C419.393 270.943 418.879 272.953 420.932 273.422C422.52 273.784 425.052 274.378 424.352 274.86C423.27 275.605 422.755 277.616 424.808 278.084C425.146 278.161 425.614 278.25 426.118 278.346C427.65 278.637 429.517 278.992 429.1 279.279C428.131 279.946 427.671 281.744 429.507 282.164C430.656 282.427 436.812 281.657 441.255 281.045C443.947 281.595 451.416 280.851 454.404 278.91C456.22 277.875 458.174 277.117 460.202 276.661C460.963 271.597 460.078 266.415 457.685 261.922C457.237 262.035 456.973 262.099 456.932 262.105ZM444.604 181.179C429.822 180.655 437.044 157.951 437.044 157.951L476.215 153.565C473.634 170.98 460.019 181.725 444.604 181.179Z" fill="#FFB7B6"/>
<path d="M436.874 267.117C436.866 267.032 436.826 266.954 436.762 266.9C436.698 266.845 436.615 266.82 436.533 266.828L422.852 268.19C422.684 268.206 422.559 268.358 422.57 268.531C422.582 268.704 422.725 268.837 422.893 268.831L422.912 268.829L436.593 267.468C436.675 267.46 436.751 267.418 436.804 267.353C436.856 267.287 436.882 267.202 436.874 267.117Z" fill="#0B122D"/>
<path d="M437.725 273.041C437.702 272.866 437.547 272.742 437.376 272.762L423.478 274.575C423.313 274.596 423.193 274.748 423.206 274.92C423.22 275.091 423.362 275.221 423.529 275.215L423.556 275.212L437.454 273.4C437.536 273.39 437.611 273.346 437.662 273.278C437.713 273.211 437.735 273.126 437.725 273.041Z" fill="#0B122D"/>
<path d="M439.91 277.745L428.233 278.992C428.066 279.01 427.942 279.161 427.954 279.334C427.966 279.507 428.109 279.639 428.277 279.633L428.297 279.632L439.974 278.385C440.145 278.366 440.27 278.208 440.252 278.032C440.233 277.856 440.081 277.729 439.91 277.745Z" fill="#0B122D"/>
<path d="M315.008 157.771C314.82 157.774 314.67 157.934 314.674 158.128C314.689 159.038 314.577 160.181 313.96 160.45C313.073 160.836 311.243 159.436 310.299 158.461C310.194 158.352 310.031 158.327 309.898 158.399C309.766 158.471 309.695 158.624 309.724 158.775C310.091 160.727 309.879 162.027 309.094 162.641C307.504 163.884 304.012 162.115 303.977 162.098C303.925 162.072 303.869 162.061 303.812 162.064C302.971 160.581 301.526 158.221 300.891 156.797C300.813 156.621 300.611 156.544 300.44 156.625C300.269 156.705 300.194 156.914 300.272 157.09C300.956 158.626 302.573 161.24 303.386 162.704C303.414 162.751 303.452 162.79 303.497 162.818C303.556 164.092 303.308 164.995 302.722 165.464C301.741 166.25 300.12 165.667 300.104 165.661C299.927 165.596 299.732 165.69 299.669 165.872C299.605 166.054 299.697 166.255 299.874 166.321C300.356 166.487 300.861 166.573 301.37 166.577C302.003 166.599 302.625 166.403 303.137 166.02C303.952 165.242 304.348 164.104 304.2 162.97C305.328 163.455 307.983 164.388 309.505 163.2C310.358 162.533 310.703 161.336 310.536 159.632C311.469 160.439 313.083 161.593 314.225 161.096C315.002 160.757 315.382 159.754 315.355 158.115C315.355 158.022 315.318 157.932 315.252 157.867C315.187 157.802 315.099 157.768 315.008 157.771Z" fill="#030F1C"/>
<path d="M318.474 156.333C316.043 156.734 309.419 157.431 307.974 155.846C307.74 155.596 307.656 155.236 307.753 154.904C308.534 151.338 317.784 149.181 317.877 149.159C317.996 149.133 318.092 149.042 318.128 148.922C318.165 148.803 318.137 148.672 318.055 148.58C317.972 148.487 317.848 148.447 317.729 148.475C317.35 148.562 308.861 150.546 307.28 154.18L305.529 151.053C305.438 150.884 305.232 150.822 305.067 150.914C304.903 151.007 304.842 151.219 304.931 151.389L307.039 155.152L307.043 155.157C307.029 155.591 307.186 156.012 307.478 156.326C308.342 157.273 310.432 157.549 312.576 157.549C314.588 157.522 316.595 157.347 318.582 157.025C318.767 156.994 318.893 156.814 318.863 156.624C318.833 156.433 318.66 156.303 318.474 156.333H318.474Z" fill="#030F1C"/>
<path d="M253.178 317.074C253.178 317.074 263.3 443.107 262.738 463.763C262.177 484.42 260.492 611.711 260.492 611.711C260.492 611.711 247.015 618.97 232.977 611.711C232.977 611.711 224.554 532.991 220.623 509.544C216.693 486.095 217.816 454.272 217.816 454.272L197.6 404.585L162.688 613.33C162.688 613.33 144.816 617.853 136.393 612.27C136.393 612.27 138.077 572.632 136.393 533.55C134.708 494.47 138.077 465.996 143.131 450.923C143.131 450.923 131.909 372.761 134.154 320.282L253.178 317.074Z" fill="#201F20"/>
<path d="M134.475 352.53C134.5 352.529 134.525 352.527 134.549 352.523C160.666 347.902 156.377 319.119 156.331 318.829C156.293 318.6 156.077 318.445 155.848 318.481C155.618 318.518 155.461 318.732 155.497 318.96C155.542 319.243 159.698 347.221 134.402 351.697C134.186 351.735 134.036 351.93 134.055 352.146C134.074 352.363 134.256 352.529 134.475 352.53V352.53Z" fill="white"/>
<path d="M255.845 346.662C256.039 346.662 256.208 346.53 256.255 346.342C256.301 346.154 256.213 345.959 256.04 345.87C255.858 345.775 237.784 336.173 238.74 318.917C238.747 318.806 238.708 318.697 238.633 318.614C238.559 318.532 238.454 318.482 238.342 318.476C238.23 318.468 238.12 318.506 238.036 318.58C237.952 318.655 237.902 318.76 237.898 318.872C236.911 336.672 255.462 346.516 255.65 346.614C255.71 346.645 255.777 346.661 255.845 346.662Z" fill="white"/>
<path d="M217.684 461.573C217.698 461.573 217.712 461.572 217.726 461.57C217.837 461.56 217.94 461.505 218.011 461.419C218.082 461.333 218.116 461.223 218.105 461.112C218.091 460.975 216.818 447.373 222.296 438.297C222.416 438.099 222.351 437.841 222.151 437.722C221.951 437.603 221.692 437.667 221.572 437.866C215.948 447.181 217.25 461.056 217.264 461.194C217.286 461.409 217.467 461.573 217.684 461.573Z" fill="white"/>
<g style="mix-blend-mode:overlay" opacity="0.6">
<path d="M253.178 317.074L253.921 326.977C206.983 345.474 133.919 332.563 133.919 332.563L134.154 320.282L253.178 317.074Z" fill="#030F1C"/>
</g>
<g style="mix-blend-mode:overlay" opacity="0.6">
<path d="M197.6 404.585L208.839 362.991C208.839 362.991 214.727 385.517 212.2 409.888C209.673 434.258 212.2 440.471 212.2 440.471L197.6 404.585Z" fill="#030F1C"/>
</g>
<g style="mix-blend-mode:overlay" opacity="0.6">
<path d="M255.639 349.008C255.639 349.008 244.145 349.938 243.81 360.104C243.546 368.156 245.69 398.812 247.936 420.586C250.182 442.359 249.747 483.302 250.175 500.609C250.602 517.916 261.839 515.697 261.839 515.697C261.839 515.697 263.297 466.446 262.465 453.698C261.633 440.953 259.472 390.183 255.639 349.008" fill="white"/>
</g>
<g style="mix-blend-mode:overlay" opacity="0.6">
<path d="M194.324 424.7C194.324 424.7 178.925 424.261 175.49 444.374C171.269 469.097 162.387 540.993 160.516 553.647C158.644 566.303 159.62 581.654 167.803 582.746L194.324 424.7Z" fill="white"/>
</g>
<path fill-rule="evenodd" clip-rule="evenodd" d="M163.952 613.064L136.632 610.183L114.772 644.976H168.664L163.952 613.064ZM288.358 634.598L258.826 613.33H234.399L231.493 644.976H312.364C312.083 643.008 310.973 637.498 307.029 636.117L288.358 634.598Z" fill="#6FA3EF"/>
<path fill-rule="evenodd" clip-rule="evenodd" d="M157.106 619.643C157.106 618.727 156.363 617.984 155.447 617.984H139.456C138.539 617.984 137.796 618.727 137.796 619.643C137.796 620.56 138.539 621.303 139.456 621.303H155.447C156.363 621.303 157.106 620.56 157.106 619.643ZM153.842 623.673C154.758 623.673 155.501 624.416 155.501 625.332C155.501 626.248 154.758 626.991 153.842 626.991H137.851C136.934 626.991 136.191 626.248 136.191 625.332C136.191 624.416 136.934 623.673 137.851 623.673H153.842ZM152.354 629.102C153.271 629.102 154.014 629.845 154.014 630.762C154.014 631.678 153.271 632.421 152.354 632.421H136.363C135.447 632.421 134.704 631.678 134.704 630.762C134.704 629.845 135.447 629.102 136.363 629.102H152.354ZM279.629 628.312H264.8C263.881 628.312 263.136 629.053 263.136 629.967C263.136 630.881 263.881 631.622 264.8 631.622H284.224L279.629 628.312ZM257.22 622.898H272.049L276.644 626.206H257.22C256.301 626.206 255.556 625.466 255.556 624.552C255.556 623.639 256.301 622.898 257.22 622.898ZM265.24 617.984H250.411C249.492 617.984 248.747 618.725 248.747 619.639C248.747 620.552 249.492 621.293 250.411 621.293H269.835L265.24 617.984Z" fill="white"/>
<path fill-rule="evenodd" clip-rule="evenodd" d="M162.03 607.123C163.72 607.123 165.09 608.493 165.09 610.183C165.09 611.873 163.72 613.243 162.03 613.243H137.373C135.683 613.243 134.313 611.873 134.313 610.183C134.313 608.493 135.683 607.123 137.373 607.123H162.03ZM245.812 644.976C245.812 644.976 248.342 631.622 232.72 631.622L231.494 644.976C231.494 644.976 231.066 651.127 233.093 651.127H307.256C309.614 651.245 311.691 649.598 312.101 647.286L312.364 644.976H245.812ZM259.521 607.227H232.708C231.636 607.227 230.766 608.092 230.766 609.158V611.4C230.766 612.467 231.636 613.331 232.709 613.331H259.52C260.591 613.331 261.46 612.468 261.46 611.402V609.155C261.46 608.091 260.592 607.227 259.521 607.227ZM157.384 633.762H126.051C123.06 633.762 120.191 634.943 118.075 637.046C115.96 639.149 114.772 642.002 114.772 644.976V651.145H168.664V644.976C168.664 638.783 163.614 633.762 157.384 633.762Z" fill="#2F65BC"/>
<path d="M168.2 82.3728C168.2 68.9737 183.083 73.2449 185.616 74.0843C188.149 74.9238 194.059 55.6166 194.059 55.6166C194.059 55.6166 224.454 53.0983 230.365 58.9744C230.365 58.9744 232.053 84.1576 231.209 100.107C230.365 116.056 225.21 122.756 219.3 122.756C217.431 122.652 215.594 122.226 213.872 121.496V150.857L178.121 132.433L182.523 97.7498C182.343 97.6442 182.239 97.5886 182.239 97.5886C182.239 97.5886 168.2 95.0276 168.2 82.3728Z" fill="#F7B17D"/>
<path d="M231.445 77.5342C231.445 77.5342 238.808 70.7266 239.652 56.4561C240.496 42.1856 237.456 27.1015 228.472 27.6598C219.487 28.218 208.069 28.7463 199.085 27.6447C190.1 26.5432 169.698 31.3817 168.2 47.014C163.404 54.2769 161.166 62.9162 161.836 71.5791C162.959 86.0948 167.821 105.246 182.987 109.543L183.689 98.0516C183.689 98.0516 168.2 85.0014 173.07 78.8399C179.319 70.9323 188.041 78.0925 188.977 83.4894C188.977 83.4894 191.763 80.6907 192.159 70.4625C192.159 70.4625 199.646 65.0656 199.833 57.6217C199.833 57.6217 223.792 55.2024 228.846 59.2965L231.445 77.5342Z" fill="#161B36"/>
<g style="mix-blend-mode:overlay" opacity="0.6">
<path d="M213.843 121.453C213.843 121.453 201.677 115.826 197.746 111.732C197.746 111.732 198.654 122.77 206.689 130.528C214.724 138.285 213.843 132.016 213.843 132.016L213.843 121.453Z" fill="#030F1C"/>
</g>
<ellipse cx="1.57932" cy="2.58212" rx="1.57932" ry="2.58212" transform="matrix(-1 0 0 1 213.845 75.6411)" fill="#161B36"/>
<ellipse cx="1.57932" cy="2.58211" rx="1.57932" ry="2.58211" transform="matrix(-1 0 0 1 229.472 76.7141)" fill="#161B36"/>
<path d="M215.53 67.8947C214.968 67.2666 214.196 66.7781 211.88 66.9177C209.564 67.0573 206.054 69.2207 206.826 69.779C207.598 70.3373 209.915 68.453 211.74 69.0811C213.565 69.7092 214.612 70.2258 215.226 69.8838C215.998 69.4533 215.8 68.1967 215.53 67.8947Z" fill="#161B36"/>
<path d="M225.568 67.254C226.303 66.8398 227.193 66.6253 229.34 67.501C231.487 68.3767 234.106 71.5509 233.194 71.8314C232.282 72.1119 230.701 69.5851 228.77 69.5936C226.839 69.6022 225.679 69.7548 225.21 69.2342C224.619 68.5789 225.214 67.4531 225.568 67.254Z" fill="#161B36"/>
<g style="mix-blend-mode:overlay" opacity="0.6">
<path d="M222.142 95.6404C222.957 95.6701 223.764 95.4837 224.482 95.1001C224.954 94.8384 225.282 94.3801 225.376 93.8516C225.552 92.7577 224.427 91.0644 223.05 89.1265C222.7 88.6635 222.379 88.1792 222.09 87.6763C221.81 87.08 221.89 81.6445 222.129 76.7345L221.285 76.6935C221.202 78.3966 220.815 86.9455 221.324 88.0313C221.632 88.5813 221.978 89.1091 222.36 89.6106C223.227 90.8312 224.678 92.8741 224.543 93.7196C224.486 94.006 224.301 94.2511 224.04 94.3849C222.828 94.903 221.464 94.945 220.222 94.5025L219.964 95.3018C220.668 95.525 221.403 95.6392 222.142 95.6404Z" fill="#030F1C"/>
</g>
<path d="M223.164 103.627C223.236 103.379 223.205 103.113 223.078 102.888C222.952 102.663 222.74 102.498 222.491 102.428C221.248 102.071 218.959 101.398 217.214 100.808C215.396 100.091 213.628 99.2548 211.921 98.3046C211.624 98.1439 211.264 98.1469 210.969 98.3127C210.674 98.4784 210.486 98.7834 210.472 99.1197C210.353 101.703 210.666 106.749 214.752 107.778C219.722 109.029 222.324 106.356 223.164 103.627Z" fill="#161B36"/>
<path d="M221.004 106.848C221.004 106.848 216.727 100.909 210.618 102.266C210.618 102.266 210.609 106.904 214.547 107.949C218.787 109.075 221.004 106.848 221.004 106.848Z" fill="#E55151"/>
<path d="M177.517 79.5096C181.559 78.1434 185.324 86.9075 185.482 87.2813C185.573 87.495 185.472 87.7411 185.257 87.831C185.042 87.9209 184.794 87.8205 184.704 87.6068C184.049 86.0939 183.247 84.6481 182.31 83.2899C181.458 83.1425 180.581 83.3025 179.836 83.7412C179.097 84.2889 178.625 85.1219 178.537 86.0345C178.503 86.2369 178.327 86.3855 178.121 86.3857C178.098 86.3858 178.075 86.3839 178.052 86.38C177.941 86.3619 177.843 86.3009 177.777 86.2104C177.712 86.1199 177.686 86.0074 177.704 85.8976C177.851 83.8673 179.594 82.3203 181.639 82.405C180.436 80.9253 179.065 79.8718 177.788 80.3047C177.645 80.3529 177.488 80.3217 177.374 80.2227C177.261 80.1238 177.209 79.9722 177.239 79.8251C177.268 79.678 177.374 79.5577 177.517 79.5096H177.517Z" fill="#0B122D"/>
<path d="M213.871 121.917C214.071 121.917 214.243 121.779 214.285 121.585C214.326 121.391 214.225 121.194 214.043 121.114C213.904 121.052 200.031 114.882 194.177 107.424C194.033 107.242 193.768 107.209 193.584 107.352C193.4 107.494 193.368 107.758 193.511 107.941C199.497 115.566 213.124 121.627 213.701 121.881C213.755 121.905 213.813 121.917 213.871 121.917Z" fill="#0B122D"/>
<path d="M195.997 52.2724C196.07 52.2724 196.143 52.2532 196.207 52.2167C203.198 48.2171 202.172 38.4483 202.125 38.0344C202.115 37.9228 202.059 37.8202 201.971 37.7504C201.882 37.6806 201.769 37.6497 201.658 37.6647C201.426 37.6907 201.26 37.8984 201.285 38.1286C201.297 38.2245 202.294 47.7662 195.785 51.4888C195.62 51.5836 195.539 51.7775 195.588 51.9613C195.638 52.145 195.805 52.2727 195.997 52.2725L195.997 52.2724Z" fill="white"/>
<path d="M182.554 63.6245C182.663 63.6247 182.768 63.583 182.846 63.5081C189.998 56.7159 187.168 45.7143 187.139 45.604C187.08 45.3799 186.848 45.2463 186.623 45.3056C186.398 45.3649 186.263 45.5947 186.323 45.8188C186.351 45.9246 189.05 56.4557 182.263 62.9015C182.138 63.02 182.099 63.2019 182.163 63.361C182.227 63.5201 182.382 63.6244 182.554 63.6245H182.554Z" fill="white"/>
<rect width="26.5626" height="48.2994" rx="5.64747" transform="matrix(-0.980287 -0.197578 -0.199786 0.97984 392.15 149.867)" fill="#36C9D8"/>
<g style="mix-blend-mode:overlay" opacity="0.6">
<path d="M358.808 188.372L366.873 148.818C367.138 147.515 368.416 146.673 369.726 146.937L373.597 147.718L373.561 147.895C373.495 148.216 373.561 148.55 373.743 148.823C373.925 149.096 374.209 149.286 374.531 149.351L382.54 150.965C382.863 151.03 383.199 150.965 383.473 150.784C383.748 150.603 383.939 150.321 384.004 150L384.041 149.822L387.912 150.603C389.222 150.867 390.069 152.137 389.803 153.439L381.738 192.994C381.61 193.619 381.238 194.169 380.703 194.522C380.168 194.874 379.514 195.001 378.885 194.874L360.699 191.209C360.07 191.082 359.517 190.712 359.162 190.18C358.808 189.648 358.68 188.998 358.808 188.372Z" fill="white"/>
</g>
<path fill-rule="evenodd" clip-rule="evenodd" d="M104.963 204.548C101.937 212.277 98.5269 220.988 94.6038 230.821C87.6005 248.374 99.346 265.607 123.399 263.234C128.863 262.695 134.248 262.109 139.825 261.394C140.242 270.362 140.159 279.3 136.046 294.845C133.713 304.227 132.456 313.841 132.297 323.503C132.297 323.503 231.301 340.066 251.531 323.503C255.733 320.062 253.673 311.819 251.802 304.329C250.879 300.637 250.002 297.128 249.944 294.467C249.781 287.007 249.433 279.911 249.104 273.191C248.875 268.521 248.656 264.033 248.513 259.731C251.093 263.768 253.875 267.674 256.849 271.434C265.596 282.497 272.204 286.473 284.296 280.099C298.86 272.421 319.095 253.198 362.894 209.777C355.102 207.265 351.242 200.495 350.512 192.205L314.828 214.82L282.399 234.743C281.656 235.202 280.728 235.246 279.944 234.861C279.16 234.476 278.632 233.715 278.548 232.85C277.475 221.856 275.764 210.934 273.422 200.137C268.425 177.561 261.213 157.283 242.782 148.088C233.017 142.657 219.903 136.846 219.903 136.846L203.245 140.942L175.349 134.613C175.349 134.613 155.258 138.834 146.511 141.517C127.573 146.793 123.47 157.273 104.963 204.548ZM138.244 223.726L138.408 227.951L136.093 228.059C136.856 226.51 137.487 225.232 138.244 223.726Z" fill="#FF6C2F"/>
<path fill-rule="evenodd" clip-rule="evenodd" d="M179.202 120.282L175.353 134.61L197.815 151.919C197.815 151.919 198.938 145.033 203.243 140.939L212.976 151.919L219.902 136.845L213.725 129.587C213.725 129.587 210.447 137.678 203.243 140.939C192.455 138.106 183.585 130.484 179.202 120.282ZM168.053 193.571H195.849V198.104H168.053V193.571Z" fill="#06122B"/>
<path d="M240.117 308.29C240.191 308.29 240.264 308.27 240.328 308.233C247.694 304.008 250.246 294.963 250.352 294.581C250.392 294.436 250.351 294.281 250.245 294.175C250.138 294.068 249.983 294.026 249.837 294.064C249.691 294.102 249.577 294.215 249.537 294.359C249.512 294.449 246.966 303.457 239.906 307.507C239.741 307.602 239.66 307.795 239.71 307.979C239.759 308.162 239.926 308.289 240.117 308.29Z" fill="#0B122D"/>
<path d="M251.382 207.752C251.59 207.751 251.767 207.6 251.798 207.394C254.612 188.809 253.277 175.365 253.263 175.232C253.236 175.003 253.031 174.837 252.801 174.857C252.689 174.868 252.587 174.923 252.516 175.009C252.446 175.096 252.412 175.206 252.424 175.317C252.437 175.45 253.76 188.796 250.964 207.27C250.947 207.38 250.975 207.492 251.042 207.581C251.108 207.671 251.208 207.73 251.318 207.747C251.339 207.75 251.36 207.752 251.382 207.752Z" fill="#0B122D"/>
<g style="mix-blend-mode:overlay" opacity="0.6">
<path d="M205.725 180.206C205.726 180.925 206.312 181.508 207.036 181.508C207.759 181.507 208.346 180.924 208.345 180.205C208.345 179.485 207.759 178.902 207.035 178.902C206.688 178.902 206.354 179.04 206.109 179.284C205.863 179.529 205.725 179.86 205.725 180.206Z" fill="#030F1C"/>
</g>
<g style="mix-blend-mode:overlay" opacity="0.6">
<path d="M204.805 206.028C204.804 206.556 205.123 207.031 205.613 207.233C206.103 207.435 206.667 207.324 207.042 206.952C207.417 206.579 207.529 206.019 207.327 205.532C207.124 205.044 206.646 204.727 206.116 204.727C205.393 204.727 204.806 205.309 204.805 206.028Z" fill="#030F1C"/>
</g>
<g style="mix-blend-mode:overlay" opacity="0.6">
<path d="M202.168 260.902C202.168 261.429 202.487 261.904 202.976 262.106C203.466 262.308 204.029 262.197 204.404 261.824C204.779 261.452 204.891 260.892 204.689 260.405C204.487 259.918 204.009 259.6 203.479 259.6C202.756 259.6 202.169 260.183 202.168 260.902Z" fill="#030F1C"/>
</g>
<g style="mix-blend-mode:overlay" opacity="0.6">
<path d="M203.478 298.209C203.478 298.736 203.797 299.212 204.287 299.414C204.776 299.616 205.34 299.505 205.715 299.132C206.09 298.76 206.203 298.199 206 297.712C205.797 297.225 205.319 296.907 204.788 296.907C204.065 296.908 203.479 297.49 203.478 298.209Z" fill="#030F1C"/>
</g>
<g style="mix-blend-mode:overlay" opacity="0.6">
<path d="M212.976 151.919L195.849 143.265L203.244 140.939L212.976 151.919Z" fill="#030F1C"/>
</g>
<path d="M207.78 224.693C209.009 204.819 210.339 177.234 209.96 170.461C209.432 161.045 202.909 141.71 202.843 141.516C202.793 141.374 202.824 141.216 202.923 141.102C203.023 140.988 203.177 140.937 203.326 140.967C203.474 140.997 203.595 141.104 203.643 141.248C203.709 141.443 210.269 160.885 210.803 170.415C211.182 177.195 209.856 204.752 208.627 224.653L207.78 224.693Z" fill="#0B122D"/>
<path d="M207.024 248.156C206.858 256.567 207.439 272.241 208.004 287.493C208.675 305.578 209.369 324.279 208.811 330.794C208.792 331.011 208.61 331.178 208.391 331.179C208.379 331.179 208.366 331.178 208.355 331.177C208.122 331.158 207.95 330.955 207.97 330.724C208.523 324.258 207.83 305.583 207.161 287.524C206.6 272.41 206.025 256.879 206.176 248.366C206.458 248.296 206.74 248.227 207.024 248.156Z" fill="#0B122D"/>
<g style="mix-blend-mode:overlay" opacity="0.6">
<path d="M138.264 222.421C139.648 219.695 141.562 215.997 145.137 209.155C145.441 208.576 145.745 207.989 146.058 207.401C146.361 206.822 146.674 206.234 146.986 205.647C150.096 199.757 153.506 193.419 157.084 186.948C158.34 200.331 157.932 213.818 155.869 227.102L138.374 227.923C138.327 225.943 138.291 224.096 138.264 222.421Z" fill="#030F1C"/>
</g>
<g style="mix-blend-mode:overlay" opacity="0.6">
<path d="M139.808 261.314C142.683 260.941 145.616 260.532 148.636 260.079C146.771 283.214 158.225 299.94 168.053 310.288C178.181 320.953 199.126 323.502 214.162 330.864C185.368 332.434 132.302 323.502 132.302 323.502C132.302 323.502 131.141 309.644 137.372 289.449C139.548 282.397 140.124 272.892 139.808 261.314Z" fill="#030F1C"/>
</g>
<g style="mix-blend-mode:overlay" opacity="0.6">
<path d="M197.815 151.919L161.574 137.678L175.353 134.611L197.815 151.919Z" fill="#030F1C"/>
</g>
<g style="mix-blend-mode:overlay" opacity="0.6">
<path d="M248.356 249.247C248.407 243.412 249.167 233.557 250.121 222.351C250.487 218.047 250.88 213.542 251.271 208.99C252.345 211.022 253.241 213.143 253.949 215.328C259.399 232.226 253.748 242.327 254 251.277C254.196 258.255 268.987 268.468 262.057 277.956C258.471 274.184 256.209 271.435 256.209 271.435C253.421 267.907 250.879 264.346 248.55 260.769C248.407 256.771 248.323 252.925 248.356 249.247Z" fill="#030F1C"/>
</g>
<g style="mix-blend-mode:overlay" opacity="0.6">
<path d="M284.363 243.5C286.143 242.632 305.631 232.141 313.213 225.241C317.424 221.408 316.789 216.675 314.843 214.82L282.414 234.743C281.672 235.202 280.743 235.246 279.959 234.861C279.175 234.476 278.647 233.715 278.563 232.849C277.49 221.856 275.779 210.934 273.437 200.137C270.63 201.31 267.541 204.101 268.384 211.917C269.307 220.483 269.413 236.893 272.782 242.344C273.641 243.734 277.769 246.718 284.363 243.5Z" fill="white"/>
</g>
<path d="M278.782 250.528C278.93 250.528 279.067 250.452 279.144 250.327C279.22 250.201 279.226 250.045 279.157 249.915C275.874 243.617 278.617 237.124 278.645 237.059C278.707 236.921 278.689 236.761 278.599 236.64C278.509 236.519 278.36 236.455 278.209 236.473C278.059 236.491 277.929 236.587 277.87 236.726C277.749 237.005 274.936 243.641 278.407 250.302C278.48 250.441 278.624 250.528 278.782 250.528Z" fill="#0B122D"/>
<g style="mix-blend-mode:overlay" opacity="0.60001">
<path d="M256.785 159.283C256.785 159.283 247.331 152.19 237.364 149.816C230.862 148.196 224.52 146.002 218.411 143.258L221.304 137.484C221.304 137.484 242.791 146.978 248.776 151.725C251.719 153.941 254.405 156.476 256.785 159.283" fill="white"/>
</g>
<path d="M146.865 202.67C146.951 202.67 147.035 202.644 147.106 202.595C159.179 194.261 159.216 176.12 159.216 175.938C159.214 175.708 159.026 175.521 158.793 175.521H158.791C158.558 175.523 158.37 175.712 158.371 175.943C158.372 176.121 158.328 193.826 146.624 201.905C146.473 202.01 146.407 202.2 146.462 202.376C146.517 202.551 146.68 202.67 146.865 202.67Z" fill="#0B122D"/>
<path d="M173.189 226.71L173.209 226.709L217.82 224.611C217.932 224.606 218.037 224.557 218.113 224.475C218.188 224.392 218.227 224.284 218.222 224.172C218.219 224.061 218.17 223.955 218.087 223.879C218.004 223.804 217.893 223.766 217.781 223.773L173.169 225.871C172.94 225.882 172.762 226.072 172.768 226.3C172.773 226.528 172.96 226.709 173.189 226.71V226.71Z" fill="#0B122D"/>
<path d="M171.65 256.443C171.682 256.443 171.715 256.439 171.747 256.431L221.137 244.848C221.363 244.794 221.503 244.568 221.449 244.343C221.395 244.118 221.169 243.979 220.943 244.031L171.552 255.615C171.344 255.664 171.206 255.86 171.23 256.072C171.255 256.283 171.435 256.443 171.65 256.443Z" fill="#0B122D"/>
<path d="M125.399 236.502C125.605 236.501 125.781 236.352 125.814 236.15C125.86 235.875 127.035 229.4 134.75 229.18C134.984 229.173 135.167 228.979 135.16 228.748C135.14 228.522 134.953 228.347 134.726 228.34C126.301 228.581 124.994 235.94 124.982 236.014C124.963 236.124 124.99 236.236 125.055 236.327C125.12 236.417 125.219 236.478 125.329 236.496C125.352 236.5 125.376 236.502 125.399 236.502Z" fill="#0B122D"/>
<g style="mix-blend-mode:overlay" opacity="0.6">
<path d="M154.275 233.923C163.891 232.738 166.076 229.666 166.076 226.624L135.453 228.059C137.674 223.552 147.684 204.325 147.997 203.737C145.107 202.817 141.424 205.359 138.341 210.196C134.738 215.849 124.654 229.597 128.78 233.528C131.154 235.79 148.827 234.595 154.275 233.923Z" fill="white"/>
</g>
<path fill-rule="evenodd" clip-rule="evenodd" d="M355.646 179.489C355.968 175.796 354.754 170.614 353.907 166.997C353.405 164.85 353.031 163.255 353.185 162.85C353.596 161.763 359.61 162.281 361.016 166.361C361.171 166.819 361.297 167.287 361.392 167.761L356.942 189.586C356.814 190.212 356.942 190.862 357.297 191.394C357.651 191.926 358.204 192.296 358.833 192.423L378.867 196.46C376.267 199.514 373.084 202.774 369.435 204.071C366.71 205.04 363.744 207.183 361.347 209.195C354.84 206.429 351.456 200.388 350.607 193.049C352.31 191.324 353.811 189.662 354.073 188.925C354.888 185.835 355.414 182.676 355.646 179.489ZM385.759 175.499C384.701 175.596 383.673 175.114 383.078 174.239C382.482 173.364 382.413 172.237 382.897 171.296C383.381 170.356 384.341 169.752 385.403 169.721L388.993 169.501C389.706 169.457 390.403 169.729 390.896 170.244C391.389 170.758 391.628 171.463 391.55 172.17L391.462 172.96C391.338 174.076 390.454 174.959 389.332 175.088L385.759 175.499ZM385.465 177.325C384.078 177.182 382.78 178.024 382.353 179.343C382.058 180.253 382.228 181.248 382.808 182.01C383.387 182.772 384.304 183.206 385.265 183.172L388.071 183.146C389.063 183.136 389.916 182.447 390.129 181.484L390.427 180.138C390.559 179.542 390.425 178.918 390.06 178.427C389.696 177.936 389.135 177.625 388.523 177.575L385.465 177.325ZM383.921 185.97L386.503 186.273C387.044 186.336 387.526 186.645 387.808 187.109C388.089 187.574 388.139 188.142 387.942 188.647L387.424 189.98C387.145 190.696 386.431 191.149 385.66 191.097L383.012 190.92C382.105 190.777 381.348 190.157 381.032 189.3C380.717 188.442 380.893 187.482 381.493 186.791C382.092 186.1 383.022 185.786 383.921 185.97ZM219.244 225.679L217.152 226.439C214.494 232.272 216.422 238.954 219.859 242.784L225.842 241.737C225.842 241.737 248.805 242.775 252.941 240.494C257.077 238.213 254.496 236.019 254.496 236.019C254.496 236.019 261.155 233.864 258.307 230.16C258.307 230.16 264.19 228.874 262.244 224.078C262.244 224.078 282.001 222.486 281.056 218.916C280.11 215.346 241.328 218.245 241.328 218.245C241.328 218.245 253.685 205.809 249.265 202.069C244.369 206.807 238.707 210.692 232.514 213.563C222.242 218.319 219.244 225.679 219.244 225.679Z" fill="#F7B17D"/>
<path d="M253.527 223.849C253.527 223.738 253.571 223.631 253.65 223.552C253.73 223.473 253.837 223.429 253.949 223.429H261.292C261.525 223.429 261.714 223.617 261.714 223.849C261.714 224.081 261.525 224.269 261.292 224.269H253.949C253.837 224.269 253.73 224.225 253.65 224.146C253.571 224.067 253.527 223.96 253.527 223.849Z" fill="#030F1C"/>
<path d="M247.33 230.096C247.33 229.984 247.375 229.877 247.454 229.799C247.533 229.72 247.641 229.676 247.753 229.676H257.39C257.623 229.676 257.812 229.864 257.812 230.096C257.812 230.327 257.623 230.515 257.39 230.515H247.753C247.641 230.515 247.533 230.471 247.454 230.392C247.375 230.314 247.33 230.207 247.33 230.096Z" fill="#030F1C"/>
<path d="M246.905 235.501H253.381C253.614 235.501 253.803 235.689 253.803 235.92C253.803 236.152 253.614 236.34 253.381 236.34H246.905C246.672 236.34 246.483 236.152 246.483 235.92C246.483 235.689 246.672 235.501 246.905 235.501Z" fill="#030F1C"/>
<path d="M531.117 118.467C529.243 110.067 534.26 101.665 542.544 99.3307C534.143 101.205 525.742 96.1881 523.408 87.9036C525.282 96.3044 520.265 104.705 511.98 107.04C520.381 105.166 528.782 110.183 531.117 118.467Z" fill="white"/>
<path d="M98.2849 164.099C100.783 158.147 107.497 155.184 113.578 157.35C107.626 154.851 104.663 148.138 106.829 142.056C104.33 148.009 97.6166 150.972 91.5353 148.806C97.4878 151.304 100.451 158.018 98.2849 164.099Z" fill="white"/>
<path d="M165.043 26.499C163.366 20.2651 166.852 13.8074 172.984 11.7892C166.75 13.466 160.293 9.97973 158.274 3.84792C159.951 10.0818 156.465 16.5395 150.333 18.5577C156.567 16.8809 163.025 20.3672 165.043 26.499Z" fill="white"/>
<path d="M383.219 103.312C381.821 98.1171 384.727 92.7356 389.836 91.0538C384.642 92.4511 379.26 89.5459 377.578 84.436C378.976 89.6309 376.07 95.0123 370.96 96.6942C376.155 95.2969 381.537 98.2021 383.219 103.312Z" fill="#FCC92C"/>
<path d="M368.487 289.904C370.164 283.67 366.678 277.212 360.546 275.194C366.78 276.871 373.237 273.384 375.256 267.253C373.579 273.486 377.065 279.944 383.197 281.962C376.963 280.285 370.505 283.772 368.487 289.904Z" fill="white"/>
<path d="M299.617 208.732C301.015 203.537 298.109 198.156 293 196.474C298.194 197.871 303.576 194.966 305.258 189.856C303.86 195.051 306.766 200.432 311.876 202.114C306.681 200.717 301.299 203.622 299.617 208.732Z" fill="#FCC92C"/>
<defs>
<filter id="filter0_i_545_1705" x="339.431" y="204.766" width="89.8726" height="134.747" filterUnits="userSpaceOnUse" color-interpolation-filters="sRGB">
<feFlood flood-opacity="0" result="BackgroundImageFix"/>
<feBlend mode="normal" in="SourceGraphic" in2="BackgroundImageFix" result="shape"/>
<feColorMatrix in="SourceAlpha" type="matrix" values="0 0 0 0 0 0 0 0 0 0 0 0 0 0 0 0 0 0 127 0" result="hardAlpha"/>
<feOffset dy="-5.91018"/>
<feGaussianBlur stdDeviation="2.95509"/>
<feComposite in2="hardAlpha" operator="arithmetic" k2="-1" k3="1"/>
<feColorMatrix type="matrix" values="0 0 0 0 0.825 0 0 0 0 0.154687 0 0 0 0 0.190342 0 0 0 1 0"/>
<feBlend mode="normal" in2="shape" result="effect1_innerShadow_545_1705"/>
</filter>
</defs>
</svg>
