<svg width="23" height="22" viewBox="0 0 23 22" fill="none" xmlns="http://www.w3.org/2000/svg">
<path d="M11.5 15.5834C11.0137 15.5834 10.5474 15.3902 10.2036 15.0464C9.85978 14.7026 9.66663 14.2363 9.66663 13.75C9.66663 12.7325 10.4825 11.9167 11.5 11.9167C11.9862 11.9167 12.4525 12.1098 12.7963 12.4537C13.1401 12.7975 13.3333 13.2638 13.3333 13.75C13.3333 14.2363 13.1401 14.7026 12.7963 15.0464C12.4525 15.3902 11.9862 15.5834 11.5 15.5834ZM17 18.3334V9.16669H5.99996V18.3334H17ZM17 7.33335C17.4862 7.33335 17.9525 7.52651 18.2963 7.87033C18.6401 8.21414 18.8333 8.68046 18.8333 9.16669V18.3334C18.8333 18.8196 18.6401 19.2859 18.2963 19.6297C17.9525 19.9735 17.4862 20.1667 17 20.1667H5.99996C5.51373 20.1667 5.04741 19.9735 4.7036 19.6297C4.35978 19.2859 4.16663 18.8196 4.16663 18.3334V9.16669C4.16663 8.14919 4.98246 7.33335 5.99996 7.33335H6.91663V5.50002C6.91663 4.28444 7.39951 3.11866 8.25905 2.25911C9.1186 1.39957 10.2844 0.916687 11.5 0.916687C12.1019 0.916687 12.6978 1.03524 13.2539 1.26557C13.81 1.49591 14.3153 1.83351 14.7409 2.25911C15.1665 2.68472 15.5041 3.18998 15.7344 3.74605C15.9647 4.30213 16.0833 4.89813 16.0833 5.50002V7.33335H17ZM11.5 2.75002C10.7706 2.75002 10.0711 3.03975 9.55542 3.55548C9.03969 4.0712 8.74996 4.77068 8.74996 5.50002V7.33335H14.25V5.50002C14.25 4.77068 13.9602 4.0712 13.4445 3.55548C12.9288 3.03975 12.2293 2.75002 11.5 2.75002Z" fill="#818896"/>
</svg>
