<svg width="190" height="115" viewBox="0 0 190 115" fill="none" xmlns="http://www.w3.org/2000/svg">
<rect x="14.5804" y="4.46777" width="85.6643" height="15.7343" rx="7.86713" fill="#AFD9FF"/>
<rect x="0.59436" y="20.2021" width="85.6643" height="19.2308" rx="9.61538" fill="#AFD9FF"/>
<rect x="14.5804" y="39.4336" width="85.6643" height="20.979" rx="10.4895" fill="#AFD9FF"/>
<rect x="67.028" y="51.6709" width="122.378" height="22.7273" rx="11.3636" fill="#AFD9FF"/>
<rect x="75.7692" y="74.3984" width="92.6573" height="17.4825" rx="8.74126" fill="#AFD9FF"/>
<rect x="7.58734" y="77.8945" width="29.7203" height="12.2378" rx="6.11888" fill="#AFD9FF"/>
<rect x="67.028" y="91.8809" width="122.378" height="19.2308" rx="9.61538" fill="#AFD9FF"/>
<circle cx="146.573" cy="5.34231" r="4.37063" fill="#2B8FEB"/>
<circle cx="5.83913" cy="100.622" r="1.74825" fill="#2B8FEB"/>
<circle cx="20.6992" cy="104.993" r="4.37063" fill="#AFD9FF"/>
<circle cx="95.8741" cy="57.7899" r="56.8182" fill="#2B8FEB"/>
<path d="M111.559 44.5737C111.798 44.3302 112.083 44.1368 112.397 44.0047C112.711 43.8727 113.049 43.8047 113.39 43.8047C113.731 43.8047 114.068 43.8727 114.383 44.0047C114.697 44.1368 114.982 44.3302 115.22 44.5737C116.22 45.5842 116.234 47.217 115.255 48.245L94.5804 72.6856C94.3457 72.9433 94.0609 73.1505 93.7433 73.2944C93.4258 73.4383 93.0822 73.5159 92.7336 73.5224C92.385 73.529 92.0388 73.4643 91.7161 73.3325C91.3933 73.2006 91.1009 73.0043 90.8567 72.7555L78.2763 60.0073C77.7911 59.5125 77.5193 58.8471 77.5193 58.1541C77.5193 57.4611 77.7911 56.7958 78.2763 56.301C78.5149 56.0575 78.7997 55.8641 79.114 55.732C79.4283 55.6 79.7658 55.532 80.1067 55.532C80.4476 55.532 80.7851 55.6 81.0994 55.732C81.4137 55.8641 81.6985 56.0575 81.9371 56.301L92.6084 67.1156L111.49 44.6506C111.511 44.6236 111.535 44.5979 111.559 44.5737Z" fill="white"/>
</svg>
